    <svg
      width="30"
      height="25"
      viewBox="0 0 30 25"
      fill="none"
      xmlns="http://www.w3.org/2000/svg"
    >
      <path
        d="M6.65158 7.85068H17.2172V5.27149H12.9638L10.7014 0H19.6833V7.85068H23.3484C27.0136 7.85068 30 10.8371 30 14.5023V17.8054C30 21.4706 30 24.457 30 24.457L4.07254e-07 24.3665C4.07254e-07 24.3665 4.07254e-07 21.4706 4.07254e-07 17.8054V14.5023C4.07254e-07 10.8145 2.98643 7.85068 6.65158 7.85068ZM19.9321 18.2805C19.9321 20.3167 19.9321 21.9909 19.9321 21.9909H27.3982C27.3982 21.9909 27.4434 20.3167 27.4434 18.2805V14.0045C27.4434 11.9683 25.7919 10.3394 23.7783 10.3394H23.6199C21.5837 10.3394 19.9548 11.9909 19.9548 14.0045V18.2805H19.9321Z"
        fill="#24262C"
      />
    </svg>