<svg width="150" height="141" viewBox="0 0 150 141" fill="none" xmlns="http://www.w3.org/2000/svg">
<path d="M142.317 35.6679V41.6628C141.951 41.6873 141.56 41.7239 141.145 41.7361C137.897 41.8826 133.27 41.5652 129.436 39.343C127.006 37.9267 128.569 35.6801 128.569 35.6801H142.317V35.6679Z" fill="white"/>
<path d="M122.953 59.1227C122.917 59.1227 122.868 59.1227 122.831 59.1105C122.514 59.0372 122.318 58.732 122.379 58.4145C123.332 54.0435 124.333 49.648 125.31 45.4112C127.007 38.0366 128.606 31.0648 129.485 25.9123C130.792 18.3179 129.986 17.4999 129.803 17.4144C126.323 15.705 124.614 10.3328 125.859 7.58559C126.067 7.13383 126.36 6.58439 126.775 6.29136C126.628 6.29136 126.482 6.26694 126.347 6.24252C125.517 6.07158 124.894 5.50994 124.724 4.78957C124.553 4.05699 124.748 2.86044 126.677 1.33423C128.167 0.162097 129.791 -0.240825 131.488 0.137676C133.93 0.687112 135.956 2.79939 136.628 4.11804C136.775 4.41107 136.652 4.76515 136.372 4.89945C136.079 5.04597 135.724 4.92387 135.59 4.64305C135.163 3.80058 133.49 1.77378 131.244 1.27318C129.9 0.967937 128.606 1.2976 127.41 2.24995C126.311 3.11684 125.737 3.95931 125.871 4.52095C125.969 4.93608 126.445 5.07039 126.592 5.09481C126.982 5.18028 127.544 5.11923 127.874 4.67968C128.411 3.97152 129.253 3.66628 130.181 3.86163C131.732 4.19129 133.649 5.97391 134.308 8.78214C134.797 10.87 133.869 11.9444 132.843 12.2619C131.512 12.677 129.62 11.92 128.875 9.9909C128.02 7.75652 127.617 7.31697 127.446 7.24372C127.446 7.25593 127.251 7.39023 126.934 8.07397C126.006 10.113 127.214 14.8259 130.328 16.3644C132.782 17.5731 130.682 27.2432 126.445 45.6798C125.468 49.9166 124.467 54.2999 123.515 58.6709C123.466 58.9395 123.234 59.1227 122.953 59.1227ZM127.825 6.12042C128.618 6.38904 129.217 7.57338 129.986 9.56356C130.474 10.8212 131.683 11.395 132.513 11.1386C133.197 10.931 133.441 10.1618 133.185 9.05075C132.648 6.75533 131.121 5.25353 129.962 5.00934C129.473 4.91166 129.095 5.03376 128.838 5.37563C128.57 5.70529 128.216 5.9617 127.825 6.12042Z" fill="#201000"/>
<path d="M136.762 10.8089C136.396 10.8089 136.005 10.7113 135.59 10.4915C135.211 10.2839 134.723 9.84437 134.576 8.87981C134.259 6.80416 135.687 3.56859 137.885 1.35864C138.923 0.308604 139.851 0.198719 140.425 0.296397C141.328 0.442913 141.963 1.12665 142.256 1.72493C142.403 2.01796 142.281 2.37204 142 2.50635C141.707 2.65286 141.353 2.53077 141.218 2.24995C141.06 1.9325 140.706 1.52958 140.242 1.45632C139.68 1.37085 139.094 1.8104 138.715 2.1889C136.591 4.32559 135.516 7.24371 135.736 8.70887C135.797 9.08737 135.932 9.34378 136.139 9.45366C137.238 10.0397 137.922 8.94086 137.995 8.80655C138.154 8.52573 138.52 8.42805 138.801 8.59899C139.082 8.75771 139.167 9.124 139.008 9.40482C138.667 9.99089 137.848 10.8089 136.762 10.8089Z" fill="#201000"/>
<path d="M139.997 11.4561C139.631 11.4561 139.24 11.3706 138.825 11.1386C138.447 10.9311 137.958 10.4915 137.812 9.52695C137.494 7.4513 138.923 4.21574 141.12 2.00578C142.158 0.955748 143.074 0.845859 143.66 0.943537C144.564 1.09005 145.198 1.7738 145.492 2.37207C145.638 2.6651 145.516 3.01918 145.235 3.15349C144.942 3.30001 144.588 3.17791 144.454 2.89709C144.295 2.57964 143.941 2.17672 143.477 2.10346C142.903 2.01799 142.329 2.45754 141.951 2.83604C139.826 4.97273 138.752 7.89085 138.972 9.35601C139.033 9.73451 139.167 9.99092 139.374 10.1008C140.473 10.6869 141.157 9.588 141.23 9.45369C141.389 9.17287 141.755 9.07519 142.036 9.24613C142.317 9.40485 142.402 9.77114 142.244 10.052C141.902 10.638 141.084 11.4561 139.997 11.4561Z" fill="#201000"/>
<path d="M90.8047 86.3136C90.5239 86.3136 90.2797 86.1183 90.2309 85.8375C90.1698 85.52 90.3774 85.2148 90.6948 85.1537C93.0635 84.7142 95.5543 84.2868 98.2038 83.8351C113.283 81.2588 132.037 78.0599 137.153 70.7219C141.341 64.7025 143.148 51.516 145.431 34.8132C145.858 31.7241 146.298 28.513 146.762 25.2164C149.191 8.26932 149.338 7.25591 147.873 3.49533C147.751 3.19009 147.445 2.83601 147.018 2.75054C146.53 2.65286 145.98 2.90926 145.406 3.48312C143.282 5.61981 142.208 8.53793 142.427 10.0031C142.488 10.3816 142.623 10.638 142.83 10.7479C143.465 11.0898 145.248 8.98969 146.408 6.87742C146.566 6.59659 146.92 6.48671 147.201 6.64543C147.482 6.80416 147.592 7.15824 147.433 7.43906C146.725 8.72108 144.271 12.8235 142.281 11.7735C141.902 11.5659 141.414 11.1264 141.267 10.1618C140.95 8.08617 142.378 4.85061 144.576 2.64065C145.675 1.52957 146.64 1.45631 147.262 1.59062C148.178 1.78597 148.764 2.50634 148.972 3.06799C150.547 7.1094 150.4 8.14722 147.922 25.3751C147.445 28.6717 147.006 31.8706 146.591 34.9597C144.283 51.8213 142.464 65.1298 138.117 71.3812C132.733 79.1221 114.492 82.2356 98.4114 84.9828C95.7741 85.4346 93.2711 85.8619 90.9146 86.2892C90.8658 86.3137 90.8414 86.3136 90.8047 86.3136Z" fill="#201000"/>
<path d="M139.533 42.6396C136.127 42.6396 131.707 41.8582 127.568 38.7325C127.312 38.5372 127.263 38.1709 127.458 37.9145C127.653 37.6581 128.02 37.6092 128.276 37.8046C135.932 43.592 144.918 40.7593 145.003 40.7349C145.309 40.6372 145.638 40.8082 145.748 41.1134C145.846 41.4186 145.675 41.7483 145.37 41.8582C145.174 41.8948 142.83 42.6396 139.533 42.6396Z" fill="#201000"/>
<path d="M138.239 48.4636C134.832 48.4636 130.412 47.6822 126.273 44.5565C126.017 44.3612 125.968 43.9949 126.163 43.7385C126.358 43.4821 126.725 43.4332 126.981 43.6286C134.637 49.416 143.623 46.5833 143.708 46.5589C144.014 46.4612 144.343 46.6322 144.453 46.9374C144.551 47.2427 144.38 47.5723 144.075 47.6822C143.879 47.7188 141.535 48.4636 138.239 48.4636Z" fill="#201000"/>
<path d="M133.795 11.102C133.074 10.87 132.769 11.9933 133.477 12.2375C135.016 12.7381 135.993 14.2032 135.932 15.8149C135.907 16.5719 137.079 16.5719 137.104 15.8149C137.189 13.6782 135.809 11.7613 133.795 11.102Z" fill="#201000"/>
<path d="M82.1722 66.4607C81.8791 66.4607 81.6349 66.2532 81.5861 65.9601C81.5373 65.6427 81.7692 65.3374 82.0867 65.3008C92.9533 63.8112 124.686 58.0238 125.004 57.9628C125.321 57.9139 125.626 58.1215 125.687 58.439C125.749 58.7564 125.529 59.0616 125.211 59.1227C124.894 59.1837 93.1365 64.9711 82.2332 66.4607C82.221 66.4607 82.1966 66.4607 82.1722 66.4607Z" fill="#201000"/>
<path d="M78.6543 45.1058C80.4369 42.1877 87.3965 29.2454 69.5947 36.2049C51.793 43.1645 51.6343 48.8298 51.6343 48.8298L78.6543 45.1058Z" fill="#201000"/>
<path d="M81.5492 68.1699C79.9741 71.5031 76.3967 72.541 72.6239 72.6997C67.3737 72.6386 62.1602 72.5165 59.352 68.1577C57.606 66.2652 56.1775 63.3715 54.8832 60.0504C48.583 59.5376 42.7102 55.8137 44.8469 49.5745C46.3609 45.1424 50.8907 45.2157 54.053 46.4244C55.3472 46.925 56.4094 47.6088 56.9467 48.2437C56.9467 48.2437 56.9589 43.2865 64.7487 41.1254C71.464 39.2696 75.9449 40.2463 78.4235 44.4098C79.327 45.9238 79.9742 47.8652 80.3527 50.2339C81.5126 57.3887 83.1365 64.7878 81.5492 68.1699Z" fill="white"/>
<path d="M72.6357 73.2858C67.5809 73.2247 61.8912 73.1515 58.8754 68.5118C57.3247 66.8146 55.9206 64.2872 54.4555 60.5999C50.1576 60.1725 46.6046 58.3899 44.9075 55.8015C43.6865 53.9456 43.479 51.7234 44.2848 49.3792C44.8709 47.6576 45.9209 46.4366 47.3983 45.7529C50.0478 44.5075 53.0758 45.4232 54.2601 45.875C55.1392 46.2169 55.9328 46.6442 56.5433 47.096C57.0195 45.3866 58.6922 42.1877 64.5895 40.5638C71.6467 38.6102 76.3352 39.7702 78.9237 44.1046C79.8638 45.6796 80.5231 47.6454 80.9383 50.1362C81.1092 51.1618 81.2802 52.1874 81.4511 53.213C82.5255 59.4644 83.5267 65.3739 82.086 68.4385C80.6208 71.4909 77.5318 73.0904 72.6357 73.2858ZM50.4263 46.2901C49.4861 46.2901 48.6192 46.4611 47.8866 46.8029C46.7145 47.3524 45.872 48.3414 45.3959 49.7455C44.6999 51.7601 44.8709 53.5793 45.8965 55.1422C47.4227 57.4742 50.878 59.1225 54.9194 59.4522C55.1392 59.4644 55.3346 59.6109 55.42 59.8185C56.8852 63.5913 58.2649 66.1065 59.7789 67.7426C59.8033 67.767 59.8277 67.7914 59.8399 67.828C62.5139 71.9793 67.6541 72.0404 72.6235 72.1014C77.019 71.9305 79.7661 70.5508 81.0115 67.9135C82.2935 65.1785 81.3168 59.4522 80.2789 53.384C80.108 52.3583 79.9249 51.3327 79.7661 50.3071C79.3876 47.9995 78.765 46.1192 77.9103 44.6907C75.6026 40.808 71.4636 39.8556 64.8947 41.6749C57.6666 43.6773 57.5201 48.0483 57.5201 48.2437C57.5201 48.4879 57.3614 48.7077 57.1294 48.7931C56.8974 48.8786 56.641 48.8053 56.4823 48.6222C56.0061 48.0483 54.9927 47.4134 53.8328 46.9739C52.6728 46.5221 51.5007 46.2901 50.4263 46.2901Z" fill="#201000"/>
<path d="M74.7475 60.1237C74.6376 60.1237 74.5277 60.0993 74.43 60.026C74.1614 59.8551 74.076 59.4888 74.2591 59.2202C75.8952 56.6928 75.1504 53.8479 71.3898 48.378C71.2067 48.1094 71.2799 47.7431 71.5363 47.5599C71.8049 47.3768 72.1712 47.45 72.3544 47.7065C75.8586 52.8101 77.458 56.4242 75.2359 59.8429C75.126 60.0382 74.9428 60.1237 74.7475 60.1237Z" fill="#201000"/>
<path d="M65.9359 51.2593C65.9947 50.8182 65.6847 50.4129 65.2436 50.3541C64.8025 50.2953 64.3972 50.6053 64.3384 51.0464C64.2796 51.4876 64.5895 51.8928 65.0307 51.9516C65.4718 52.0104 65.8771 51.7005 65.9359 51.2593Z" fill="#201000"/>
<path d="M77.7664 50.3137C77.8252 49.8726 77.5153 49.4673 77.0741 49.4085C76.633 49.3497 76.2277 49.6597 76.169 50.1008C76.1102 50.542 76.4201 50.9472 76.8612 51.006C77.3024 51.0648 77.7076 50.7549 77.7664 50.3137Z" fill="#201000"/>
<path d="M68.4112 63.8843C66.7507 64.0919 65.371 62.8098 65.5175 61.1371C65.5908 60.3069 64.3087 60.1359 64.2355 60.9662C64.0157 63.4814 66.0547 65.496 68.5821 65.1785C69.4124 65.0686 69.2415 63.7866 68.4112 63.8843Z" fill="#201000"/>
<path d="M65.9817 46.9006C65.8352 46.5588 65.4689 46.4367 65.1393 46.5588C64.7974 46.6686 64.4555 46.7907 64.1136 46.9006C63.784 47.0105 63.6375 47.4379 63.7718 47.7431C63.9183 48.085 64.2846 48.2071 64.6142 48.085C64.9561 47.9751 65.298 47.853 65.6399 47.7431C65.9573 47.6332 66.1038 47.2059 65.9817 46.9006Z" fill="#201000"/>
<path d="M76.335 45.2279L75.5292 45.118C74.6989 45.0081 74.528 46.2901 75.3582 46.4L76.1641 46.5099C76.9943 46.6198 77.1653 45.3378 76.335 45.2279Z" fill="#201000"/>
<path d="M55.1153 55.1055C54.8711 55.1055 54.6391 54.9468 54.5659 54.7148C54.1752 53.5793 51.8309 50.9665 49.6454 51.113C49.3279 51.1374 49.0471 50.8932 49.0227 50.5635C48.9983 50.2461 49.2425 49.9653 49.5721 49.9408C52.2827 49.7577 55.1153 52.7246 55.677 54.3363C55.7868 54.6416 55.6159 54.9712 55.3107 55.0811C55.2496 55.0933 55.1764 55.1055 55.1153 55.1055Z" fill="#201000"/>
<path d="M54.3452 46.5099C55.2121 53.4206 56.0546 54.4462 57.8006 54.2753C59.3023 54.141 57.8006 44.129 57.8006 44.129L54.3452 46.5099Z" fill="#201000"/>
<path d="M70.3396 33.8241C68.0442 31.2356 64.015 34.1904 62.0248 35.6067C58.4474 38.1463 55.6025 41.4063 53.4048 45.1913C52.9896 45.9117 54.1007 46.571 54.528 45.8506C54.5525 45.814 54.5769 45.7651 54.6013 45.7285C54.7478 45.7651 54.9065 45.7651 55.0775 45.6675C57.5316 44.2633 60.0835 43.0424 62.7574 42.09C64.5888 41.4429 66.6523 41.101 68.3494 40.1243C70.4251 38.9033 72.3054 36.034 70.3396 33.8241Z" fill="#201000"/>
<path d="M86.4823 129.914C86.4701 129.914 86.4457 129.914 86.4334 129.914C86.116 129.89 85.8718 129.597 85.8962 129.28L89.9987 82.2356C90.0231 81.9182 90.3161 81.674 90.6336 81.6984C90.951 81.7228 91.1952 82.0158 91.1708 82.3333L87.0684 129.377C87.0439 129.682 86.7875 129.914 86.4823 129.914Z" fill="#201000"/>
<path d="M61.0129 61.7723C59.7186 58.964 50.7323 54.0313 52.6736 61.3693C53.4428 64.2508 52.5271 65.6061 52.8079 67.5963C53.1986 70.3313 55.7627 72.0284 57.7773 75.0442C58.0581 75.4593 55.6284 80.5752 52.4416 85.398C48.2659 91.7226 43.0402 98.1205 43.2111 98.3525C48.0706 104.506 56.129 110.001 58.5831 109.036C59.3035 108.755 66.9956 94.7873 72.1847 84.1038C74.9197 78.4507 73.4545 74.6169 73.4789 74.3971C73.6987 72.4557 67.0566 73.2127 65.1153 69.5376C63.174 65.8747 61.0129 61.7723 61.0129 61.7723Z" fill="white"/>
<path d="M30.7206 129.744C26.1175 129.744 22.6744 128.303 20.4767 125.421C16.0445 119.646 16.9725 108.389 23.1506 92.8581C32.955 68.219 36.8987 62.7002 53.1254 65.0811C53.4428 65.1299 53.6626 65.423 53.626 65.7404C53.5771 66.0579 53.2841 66.2776 52.9666 66.241C37.4603 63.97 33.9195 68.976 24.2494 93.2855C18.2301 108.413 17.2533 119.28 21.4168 124.701C23.8099 127.814 27.9123 129.06 33.6143 128.376C47.5577 126.728 54.9324 113.908 60.3169 104.555C61.1471 103.102 61.9408 101.735 62.6855 100.526C70.2922 88.2429 74.065 79.4763 73.308 75.85C72.7463 73.1517 71.5376 73.0296 70.0114 72.8831C69.1323 72.7976 68.2165 72.6999 67.4107 72.1016C63.7722 69.3789 62.5757 65.4474 61.7942 62.8467C61.4279 61.6257 61.0739 60.4658 60.6709 60.2216C60.4878 60.1117 60.036 59.8675 59.7796 60.0507C59.4988 60.246 59.3279 60.9786 59.5843 62.1385C60.0116 64.0555 62.478 69.6597 62.5024 69.7086C62.6367 70.0016 62.5024 70.3557 62.1972 70.4778C61.9041 70.6121 61.55 70.4778 61.4279 70.1725C61.3303 69.9405 58.8883 64.4095 58.4366 62.3827C58.0947 60.8321 58.3389 59.6234 59.0959 59.0861C59.4378 58.8419 60.1703 58.5367 61.2814 59.2082C62.0628 59.6844 62.4169 60.8565 62.9175 62.4926C63.6989 65.0933 64.7856 68.6585 68.1189 71.1493C68.6561 71.5522 69.3765 71.6255 70.1335 71.6987C71.7329 71.8575 73.7231 72.0528 74.4679 75.5936C75.5179 80.624 69.1933 92.2598 63.699 101.124C62.9664 102.321 62.1727 103.676 61.3425 105.117C56.1411 114.152 48.2903 127.802 33.7608 129.524C32.6863 129.67 31.6729 129.744 30.7206 129.744Z" fill="#201000"/>
<path d="M59.3274 70.0626C59.1443 70.0626 58.9734 69.9772 58.8513 69.8184C58.4972 69.33 56.2872 64.6904 55.8599 61.467C55.5791 59.2937 56.3971 58.5367 56.9221 58.2803C57.7646 57.8529 58.9245 58.1704 59.8525 59.0739C60.0844 59.2937 60.0966 59.6722 59.8647 59.9042C59.6449 60.1362 59.2664 60.1362 59.0344 59.9164C58.4728 59.3792 57.8256 59.135 57.4471 59.3303C57.0442 59.5379 56.8855 60.2827 57.0198 61.3205C57.4105 64.3119 59.5106 68.7318 59.8036 69.1347C59.9868 69.4033 59.9379 69.7696 59.6693 69.9527C59.5716 70.026 59.4495 70.0626 59.3274 70.0626Z" fill="#201000"/>
<path d="M57.2766 69.5621C57.0934 69.5621 56.9225 69.4766 56.8004 69.3179C56.4463 68.8295 54.2364 64.1898 53.809 60.9664C53.5526 59.0129 54.1875 58.1826 54.7614 57.8407C55.4695 57.4134 56.4341 57.5355 57.3254 58.1704C57.594 58.3536 57.6551 58.7199 57.4597 58.9885C57.2766 59.2571 56.9103 59.3181 56.6417 59.1228C56.1533 58.7809 55.6527 58.671 55.3597 58.8419C54.9812 59.0739 54.8346 59.8065 54.969 60.8077C55.3597 63.7991 57.4597 68.219 57.7528 68.6219C57.9359 68.8905 57.8871 69.2568 57.6184 69.44C57.5208 69.5254 57.3987 69.5621 57.2766 69.5621Z" fill="#201000"/>
<path d="M55.3475 69.4033C55.1643 69.4033 54.9934 69.3179 54.8835 69.1591C54.4928 68.6219 52.1363 63.4206 51.7212 60.2216C51.4404 58.0483 52.2584 57.2913 52.7835 57.0349C53.6259 56.6076 54.7858 56.925 55.7138 57.8285C55.9458 58.0483 55.958 58.4268 55.726 58.6588C55.494 58.8908 55.1277 58.8908 54.8957 58.671C54.3341 58.1338 53.687 57.8896 53.3085 58.0849C52.9056 58.2925 52.7468 59.0373 52.8811 60.0751C53.2841 63.1153 55.5428 68.0603 55.8359 68.4754C56.019 68.744 55.958 69.1103 55.7016 69.2934C55.5795 69.3667 55.4696 69.4033 55.3475 69.4033Z" fill="#201000"/>
<path d="M34.6399 109.451C34.5178 109.451 34.3957 109.414 34.2858 109.329C34.0294 109.134 33.9806 108.767 34.1637 108.511C35.6655 106.521 37.5336 104.115 39.4993 101.564C43.7117 96.1425 48.4735 89.9889 52.0265 84.8486C57.5086 76.9123 57.2644 75.3494 57.0569 75.0564C56.6295 74.4459 56.1045 73.8232 55.5551 73.1517C53.5161 70.6976 50.9764 67.6451 52.466 63.9212C52.5881 63.6159 52.93 63.4694 53.223 63.5915C53.5283 63.7136 53.6748 64.0555 53.5527 64.3485C52.3195 67.4253 54.4196 69.9528 56.4586 72.3947C57.0324 73.0784 57.5697 73.7256 58.0214 74.3727C59.8041 76.9123 51.8433 87.5347 40.4151 102.272C38.4371 104.811 36.5812 107.217 35.0794 109.207C34.994 109.378 34.823 109.451 34.6399 109.451Z" fill="#201000"/>
<path d="M57.6548 109.952C57.5938 109.952 57.5449 109.939 57.4839 109.927C57.0199 109.781 46.1289 106.325 42.759 97.9862C42.6369 97.681 42.7834 97.3391 43.0765 97.217C43.3695 97.0949 43.7236 97.2414 43.8457 97.5344C47.0202 105.373 57.7281 108.767 57.838 108.804C58.1432 108.902 58.3141 109.231 58.2287 109.537C58.131 109.793 57.899 109.952 57.6548 109.952Z" fill="#201000"/>
<path d="M54.627 114.665C54.5659 114.665 54.5171 114.652 54.4561 114.64C53.9921 114.494 43.101 111.038 39.7312 102.699C39.6091 102.394 39.7556 102.052 40.0486 101.93C40.3417 101.808 40.6957 101.954 40.8178 102.247C43.9924 110.086 54.7002 113.48 54.8101 113.517C55.1154 113.615 55.2863 113.944 55.2008 114.25C55.1154 114.494 54.8834 114.665 54.627 114.665Z" fill="#201000"/>
<path d="M46.1532 93.896C46.141 93.896 46.1165 93.896 46.1043 93.896C45.7869 93.8716 45.5427 93.5907 45.5671 93.2611L46.1532 85.862C46.1776 85.5445 46.4584 85.3003 46.7881 85.3248C47.1055 85.3492 47.3497 85.63 47.3253 85.9597L46.7392 93.3587C46.7148 93.664 46.4584 93.896 46.1532 93.896Z" fill="#201000"/>
<path d="M97.2227 95.5487L75.8623 103.118L83.4311 124.478L104.792 116.909L97.2227 95.5487Z" fill="#FF98E1"/>
<path d="M103.368 116.801C103.283 116.801 103.197 116.777 103.112 116.74L77.0198 104.311C76.7268 104.177 76.6047 103.822 76.739 103.529C76.8733 103.236 77.2274 103.114 77.5204 103.249L103.613 115.678C103.906 115.812 104.028 116.166 103.893 116.459C103.796 116.679 103.588 116.801 103.368 116.801Z" fill="#FFDF57"/>
<path d="M84.1009 123.627C84.0154 123.627 83.93 123.602 83.8445 123.566C83.5515 123.431 83.4294 123.077 83.5637 122.784L95.9932 96.692C96.1275 96.3989 96.4815 96.2769 96.7746 96.4112C97.0676 96.5455 97.1897 96.8996 97.0554 97.1926L84.6259 123.285C84.5405 123.504 84.3207 123.627 84.1009 123.627Z" fill="#FFDF57"/>
<path d="M101.036 97.5222C100.792 97.5222 100.572 97.3757 100.487 97.1315C100.377 96.8263 100.535 96.4966 100.841 96.3745L121.683 88.7435C121.988 88.6336 122.33 88.7923 122.44 89.0975C122.549 89.4028 122.391 89.7324 122.085 89.8545L101.244 97.4856C101.17 97.51 101.097 97.5222 101.036 97.5222Z" fill="#FFDF57"/>
<path d="M103.307 103.92C103.063 103.92 102.843 103.774 102.757 103.529C102.648 103.224 102.806 102.894 103.112 102.785L112.879 99.3293C113.185 99.2194 113.514 99.3781 113.624 99.6833C113.734 99.9886 113.575 100.318 113.27 100.428L103.502 103.883C103.441 103.908 103.368 103.92 103.307 103.92Z" fill="#FFDF57"/>
<path d="M16.2386 78.878C14.1263 78.878 12.417 77.1687 12.417 75.0564C12.417 72.9441 14.1263 71.2348 16.2386 71.2348C18.3509 71.2348 20.0603 72.9441 20.0603 75.0564C20.0603 77.1687 18.3387 78.878 16.2386 78.878ZM16.2386 72.3947C14.7735 72.3947 13.5891 73.579 13.5891 75.0442C13.5891 76.5094 14.7735 77.6937 16.2386 77.6937C17.7038 77.6937 18.8881 76.5094 18.8881 75.0442C18.8881 73.5912 17.6916 72.3947 16.2386 72.3947Z" fill="white"/>
<path d="M141.413 88.6946C141.523 88.6946 141.632 88.6946 141.742 88.7068V87.5347C141.632 87.5347 141.523 87.5347 141.413 87.5347C135.076 87.5347 129.923 92.6872 129.923 99.024C129.923 105.361 135.076 110.513 141.413 110.513C141.523 110.513 141.632 110.513 141.742 110.513V109.341C141.632 109.341 141.523 109.341 141.413 109.341C135.723 109.341 131.095 104.714 131.095 99.024C131.095 93.3221 135.723 88.6946 141.413 88.6946Z" fill="white"/>
<path d="M0.585938 41.4553V42.6396C8.91295 43.6774 15.3719 50.7957 15.3719 59.4035C15.3719 68.0114 8.90074 75.1296 0.585938 76.1674V77.3518C9.56006 76.3017 16.544 68.6585 16.544 59.4035C16.544 50.1486 9.56006 42.5053 0.585938 41.4553Z" fill="white"/>
<path d="M14.1871 130.622C14.1871 130.622 13.9674 140.122 16.7756 140.122C19.5838 140.122 19.364 131.062 19.364 131.062L14.1871 130.622Z" fill="#201000"/>
<path d="M123.172 130.622C123.172 130.622 122.952 140.122 125.76 140.122C128.569 140.122 128.349 131.062 128.349 131.062L123.172 130.622Z" fill="#201000"/>
<path d="M141.73 23.6412H0.586064C0.256402 23.6412 0 23.8976 0 24.2272V130.622V131.209H0.586064H142.316V24.2272C142.316 23.8976 142.06 23.6412 141.73 23.6412ZM141.144 130.036H1.17213V24.8133H141.144V130.036Z" fill="#303139"/>
<path d="M142.316 21.7H0V35.8266H142.316V21.7Z" fill="#303139"/>
<path d="M21.1596 31.9316H15.421C15.0914 31.9316 14.835 31.6752 14.835 31.3455V25.6069C14.835 25.2773 15.0914 25.0209 15.421 25.0209H21.1596C21.4892 25.0209 21.7456 25.2773 21.7456 25.6069V31.3455C21.7456 31.6752 21.4892 31.9316 21.1596 31.9316ZM16.0193 30.7594H20.5735V26.2052H16.0193V30.7594Z" fill="white"/>
<path d="M31.0251 28.2686H25.9825C25.6529 28.2686 25.3965 28.0122 25.3965 27.6826C25.3965 27.3529 25.6529 27.0965 25.9825 27.0965H31.0251C31.3548 27.0965 31.6112 27.3529 31.6112 27.6826C31.6112 28.0122 31.3426 28.2686 31.0251 28.2686Z" fill="white"/>
<path d="M10.4149 31.3943C10.2684 31.3943 10.1096 31.3333 9.99975 31.2234L5.1403 26.364C4.90831 26.132 4.90831 25.7657 5.1403 25.5337C5.37228 25.3017 5.73857 25.3017 5.97056 25.5337L10.83 30.3932C11.062 30.6251 11.062 30.9914 10.83 31.2234C10.7079 31.3333 10.5614 31.3943 10.4149 31.3943Z" fill="white"/>
<path d="M5.55543 31.3943C5.40891 31.3943 5.25018 31.3333 5.1403 31.2234C4.90831 30.9914 4.90831 30.6251 5.1403 30.3932L9.99975 25.5337C10.2317 25.3017 10.598 25.3017 10.83 25.5337C11.062 25.7657 11.062 26.132 10.83 26.364L5.97056 31.2234C5.84846 31.3333 5.70195 31.3943 5.55543 31.3943Z" fill="white"/>
<path d="M133.598 119.097C133.659 118.743 133.696 118.388 133.696 118.022C133.696 114.665 130.973 111.954 127.627 111.954C124.27 111.954 121.559 114.677 121.559 118.022C121.559 118.388 121.608 118.743 121.669 119.097H133.598Z" fill="#00DA9F"/>
<path d="M132.939 119.097H136.761V114.542C136.773 114.542 132.646 119.402 132.939 119.097Z" fill="#00DA9F"/>
<path d="M98.9102 50.1485C98.8613 49.8677 98.8247 49.5747 98.8247 49.2694C98.8247 46.5222 101.047 44.3001 103.794 44.3001C106.541 44.3001 108.763 46.5222 108.763 49.2694C108.763 49.5747 108.727 49.8677 108.678 50.1485H98.9102Z" fill="#00DA9F"/>
<path d="M99.4357 50.1485H96.2979V46.4124C96.2979 46.4124 99.6799 50.3927 99.4357 50.1485Z" fill="#00DA9F"/>
<path d="M16.4214 95.7883C16.336 95.2755 16.2749 94.7627 16.2749 94.2255C16.2749 89.3538 20.2186 85.4101 25.0903 85.4101C29.962 85.4101 33.9057 89.3538 33.9057 94.2255C33.9057 94.7627 33.8446 95.2755 33.747 95.7883H16.4214Z" fill="#00DA9F"/>
<path d="M17.362 95.7883H11.8066V89.1707C11.8066 89.1707 17.8016 96.2279 17.362 95.7883Z" fill="#00DA9F"/>
<path d="M120.351 41.6996L119.374 43.6409C119.008 44.3857 120.119 45.045 120.498 44.3002L121.474 42.3589C121.841 41.6141 120.717 40.9548 120.351 41.6996Z" fill="#F76567"/>
<path d="M124.697 14.8383C124.27 14.1912 123.83 13.544 123.403 12.8969C122.939 12.201 121.816 12.8603 122.28 13.5563C122.707 14.2034 123.146 14.8505 123.574 15.4976C124.05 16.1813 125.161 15.5342 124.697 14.8383Z" fill="#F76567"/>
<path d="M122.365 7.56128C122.047 7.89094 121.718 8.20839 121.4 8.53805C120.814 9.12412 121.73 10.0398 122.316 9.45378C122.633 9.12412 122.963 8.80667 123.281 8.477C123.867 7.87873 122.951 6.963 122.365 7.56128Z" fill="#F76567"/>
<path d="M123.55 40.7106C123.123 41.5775 122.683 42.4321 122.256 43.299C121.889 44.0438 123 44.7031 123.379 43.9583C123.806 43.0915 124.246 42.2368 124.673 41.3699C125.039 40.6251 123.916 39.9658 123.55 40.7106Z" fill="#F76567"/>
<path d="M117.799 52.5784C117.152 52.0412 116.505 51.5039 115.858 50.9545C115.589 50.7347 115.21 50.6859 114.942 50.9545C114.71 51.1865 114.673 51.6505 114.942 51.8702C115.589 52.4075 116.236 52.9447 116.883 53.4941C117.152 53.7139 117.53 53.7627 117.799 53.4941C118.031 53.2622 118.068 52.7982 117.799 52.5784Z" fill="#F76567"/>
<path d="M126.321 103.102C126.028 102.675 125.748 102.235 125.455 101.808C124.991 101.112 123.867 101.771 124.331 102.467C124.624 102.895 124.905 103.334 125.198 103.761C125.662 104.445 126.785 103.798 126.321 103.102Z" fill="#F76567"/>
<path d="M115.649 76.8635C115.295 76.4361 114.929 75.9966 114.575 75.5693C114.355 75.3006 113.891 75.3373 113.659 75.5693C113.391 75.8379 113.439 76.2164 113.659 76.485C114.013 76.9123 114.38 77.3519 114.734 77.7792C114.953 78.0478 115.417 78.0112 115.649 77.7792C115.906 77.5106 115.869 77.1321 115.649 76.8635Z" fill="white"/>
<path d="M31.5737 63.6037C30.9998 62.8101 30.4259 62.0165 29.8521 61.2351C29.3637 60.5635 28.2404 61.2106 28.7288 61.8944C29.3027 62.688 29.8765 63.4816 30.4504 64.2631C30.951 64.9346 32.0743 64.2875 31.5737 63.6037Z" fill="#F76567"/>
<path d="M29.1075 66.7172C28.5336 66.0701 27.9598 65.423 27.3859 64.7759C26.8365 64.1532 25.9208 65.0689 26.4702 65.6916C27.0441 66.3387 27.6179 66.9858 28.1918 67.6329C28.7412 68.2556 29.6569 67.3399 29.1075 66.7172Z" fill="#F76567"/>
</svg>
